<svg width="806" height="806" viewBox="0 0 806 806" fill="none" xmlns="http://www.w3.org/2000/svg">
<circle cx="403" cy="396.668" r="214.121" fill="#10328C"/>
<circle cx="403" cy="396.668" r="177.283" fill="white"/>
<path d="M450.439 520.331L404.727 639.496L359.014 520.331L450.439 520.331Z" fill="#10328C" stroke="white" stroke-width="5"/>
<path d="M543.445 396.668C543.445 474.234 480.566 537.113 403 537.113C325.434 537.113 262.555 474.234 262.555 396.668C262.555 319.103 325.434 256.224 403 256.224C480.566 256.224 543.445 319.103 543.445 396.668Z" fill="#10328C"/>
<circle cx="403" cy="396.668" r="92.095" fill="white"/>
<mask id="path-6-inside-1_927_3" fill="white">
<path d="M381.127 159.524H424.873V360.982H381.127V159.524Z"/>
</mask>
<path d="M381.127 159.524H424.873V360.982H381.127V159.524Z" fill="#10328C"/>
<path d="M381.127 159.524V154.524H376.127V159.524H381.127ZM424.873 159.524H429.873V154.524H424.873V159.524ZM381.127 164.524H424.873V154.524H381.127V164.524ZM419.873 159.524V360.982H429.873V159.524H419.873ZM386.127 360.982V159.524H376.127V360.982H386.127Z" fill="white" mask="url(#path-6-inside-1_927_3)"/>
<circle cx="403" cy="396.668" r="55.257" fill="#10328C"/>
<path d="M80.0942 569.441C78.7886 569.441 77.6706 568.956 76.74 567.985C75.8095 567.014 75.3442 565.847 75.3442 564.485C75.3442 563.093 75.8095 561.919 76.74 560.963C77.6706 560.006 78.7886 559.528 80.0942 559.528C80.4831 559.528 80.8233 559.564 81.115 559.637C81.4067 559.709 81.7053 559.818 82.0108 559.963L85.5525 555.354C85.0247 554.688 84.622 553.927 84.3442 553.072C84.0664 552.217 83.997 551.325 84.1358 550.398L79.0942 548.615C78.6775 549.34 78.1289 549.905 77.4483 550.311C76.7678 550.717 75.9831 550.919 75.0942 550.919C73.7886 550.919 72.6706 550.434 71.74 549.463C70.8095 548.492 70.3442 547.325 70.3442 545.963C70.3442 544.572 70.8095 543.398 71.74 542.441C72.6706 541.485 73.7886 541.006 75.0942 541.006C76.4275 541.006 77.5525 541.485 78.4692 542.441C79.3858 543.398 79.8442 544.572 79.8442 545.963V546.137L84.9275 547.963C85.4275 547.035 86.0317 546.325 86.74 545.832C87.4483 545.34 88.2331 544.992 89.0942 544.789V539.18C88.0108 538.861 87.1567 538.238 86.5317 537.311C85.9067 536.383 85.5942 535.412 85.5942 534.398C85.5942 533.006 86.0595 531.832 86.99 530.876C87.9206 529.919 89.0386 529.441 90.3442 529.441C91.6775 529.441 92.8025 529.919 93.7192 530.876C94.6358 531.832 95.0942 533.006 95.0942 534.398C95.0942 535.412 94.7747 536.383 94.1358 537.311C93.497 538.238 92.6497 538.861 91.5942 539.18V544.789C92.4553 544.992 93.247 545.34 93.9692 545.832C94.6914 546.325 95.3025 547.035 95.8025 547.963L100.844 546.137V545.963C100.844 544.572 101.309 543.398 102.24 542.441C103.171 541.485 104.289 541.006 105.594 541.006C106.928 541.006 108.053 541.485 108.969 542.441C109.886 543.398 110.344 544.572 110.344 545.963C110.344 547.325 109.886 548.492 108.969 549.463C108.053 550.434 106.928 550.919 105.594 550.919C104.705 550.919 103.914 550.717 103.219 550.311C102.525 549.905 101.983 549.34 101.594 548.615L96.5525 550.398C96.6914 551.325 96.6289 552.217 96.365 553.072C96.1011 553.927 95.6914 554.688 95.1358 555.354L98.6775 559.963C98.9831 559.818 99.2817 559.709 99.5733 559.637C99.865 559.564 100.205 559.528 100.594 559.528C101.928 559.528 103.053 560.006 103.969 560.963C104.886 561.919 105.344 563.093 105.344 564.485C105.344 565.847 104.886 567.014 103.969 567.985C103.053 568.956 101.928 569.441 100.594 569.441C99.2886 569.441 98.1706 568.956 97.24 567.985C96.3095 567.014 95.8442 565.847 95.8442 564.485C95.8442 563.905 95.9206 563.383 96.0733 562.919C96.2261 562.456 96.4414 562.006 96.7192 561.572L93.1775 556.963C92.2886 557.456 91.3372 557.702 90.3233 557.702C89.3095 557.702 88.3581 557.456 87.4692 556.963L83.9692 561.615C84.247 562.05 84.4622 562.492 84.615 562.941C84.7678 563.39 84.8442 563.905 84.8442 564.485C84.8442 565.847 84.3858 567.014 83.4692 567.985C82.5525 568.956 81.4275 569.441 80.0942 569.441ZM75.0942 548.311C75.7331 548.311 76.2678 548.086 76.6983 547.637C77.1289 547.188 77.3442 546.63 77.3442 545.963C77.3442 545.296 77.1289 544.738 76.6983 544.289C76.2678 543.84 75.7331 543.615 75.0942 543.615C74.4553 543.615 73.9206 543.84 73.49 544.289C73.0595 544.738 72.8442 545.296 72.8442 545.963C72.8442 546.63 73.0595 547.188 73.49 547.637C73.9206 548.086 74.4553 548.311 75.0942 548.311ZM80.0942 566.832C80.7331 566.832 81.2678 566.608 81.6983 566.159C82.1289 565.709 82.3442 565.151 82.3442 564.485C82.3442 563.818 82.1289 563.26 81.6983 562.811C81.2678 562.361 80.7331 562.137 80.0942 562.137C79.4553 562.137 78.9206 562.361 78.49 562.811C78.0595 563.26 77.8442 563.818 77.8442 564.485C77.8442 565.151 78.0595 565.709 78.49 566.159C78.9206 566.608 79.4553 566.832 80.0942 566.832ZM90.3442 536.746C90.9831 536.746 91.5178 536.521 91.9483 536.072C92.3789 535.622 92.5942 535.064 92.5942 534.398C92.5942 533.731 92.3789 533.173 91.9483 532.724C91.5178 532.274 90.9831 532.05 90.3442 532.05C89.7053 532.05 89.1706 532.274 88.74 532.724C88.3095 533.173 88.0942 533.731 88.0942 534.398C88.0942 535.064 88.3095 535.622 88.74 536.072C89.1706 536.521 89.7053 536.746 90.3442 536.746ZM90.3858 555.093C91.4136 555.093 92.2886 554.709 93.0108 553.941C93.7331 553.173 94.0942 552.238 94.0942 551.137C94.0942 550.064 93.7331 549.151 93.0108 548.398C92.2886 547.644 91.3997 547.267 90.3442 547.267C89.3164 547.267 88.4345 547.644 87.6983 548.398C86.9622 549.151 86.5942 550.079 86.5942 551.18C86.5942 552.253 86.9622 553.173 87.6983 553.941C88.4345 554.709 89.3303 555.093 90.3858 555.093ZM100.594 566.832C101.233 566.832 101.768 566.608 102.198 566.159C102.629 565.709 102.844 565.151 102.844 564.485C102.844 563.818 102.629 563.26 102.198 562.811C101.768 562.361 101.233 562.137 100.594 562.137C99.9553 562.137 99.4206 562.361 98.99 562.811C98.5595 563.26 98.3442 563.818 98.3442 564.485C98.3442 565.151 98.5595 565.709 98.99 566.159C99.4206 566.608 99.9553 566.832 100.594 566.832ZM105.594 548.311C106.233 548.311 106.768 548.086 107.198 547.637C107.629 547.188 107.844 546.63 107.844 545.963C107.844 545.296 107.629 544.738 107.198 544.289C106.768 543.84 106.233 543.615 105.594 543.615C104.955 543.615 104.421 543.84 103.99 544.289C103.559 544.738 103.344 545.296 103.344 545.963C103.344 546.63 103.559 547.188 103.99 547.637C104.421 548.086 104.955 548.311 105.594 548.311Z" fill="#10328C"/>
<circle cx="403" cy="403" r="402" stroke="#ABABAB" stroke-width="2" stroke-linecap="round" stroke-linejoin="round" stroke-dasharray="8 16"/>
<circle cx="397.25" cy="397.25" r="343.766" stroke="#ABABAB" stroke-width="1.96719" stroke-linecap="round" stroke-linejoin="round" stroke-dasharray="7.87 15.74"/>
<circle cx="403" cy="396.668" r="282.26" stroke="#ABABAB" stroke-width="1.85469" stroke-linecap="round" stroke-linejoin="round" stroke-dasharray="7.42 14.84"/>
<path d="M578.101 788.159L574.208 785.859L581.077 765.768L562.851 754.874L564.336 750.603L586.583 763.75L578.101 788.159ZM552.494 797.545L530.247 784.398L538.729 759.988L542.622 762.289L535.753 782.38L553.978 793.273L552.494 797.545ZM549.176 780.566C548.578 780.785 547.955 780.703 547.306 780.32C546.657 779.936 546.199 779.379 545.932 778.649C545.664 777.919 545.654 777.198 545.901 776.486C546.148 775.774 546.571 775.308 547.168 775.089C547.766 774.87 548.389 774.953 549.038 775.336C549.687 775.72 550.145 776.276 550.413 777.007C550.68 777.737 550.691 778.458 550.443 779.17C550.196 779.882 549.773 780.348 549.176 780.566ZM559.419 776.812C558.821 777.031 558.198 776.949 557.549 776.566C556.9 776.182 556.442 775.625 556.174 774.895C555.907 774.165 555.897 773.444 556.144 772.732C556.391 772.02 556.814 771.554 557.411 771.335C558.009 771.116 558.632 771.199 559.281 771.582C559.93 771.965 560.388 772.522 560.656 773.253C560.923 773.983 560.933 774.704 560.686 775.416C560.439 776.128 560.016 776.593 559.419 776.812ZM569.661 773.058C569.064 773.277 568.441 773.195 567.792 772.811C567.143 772.428 566.685 771.871 566.417 771.141C566.149 770.411 566.139 769.689 566.387 768.978C566.634 768.266 567.056 767.8 567.654 767.581C568.251 767.362 568.875 767.444 569.524 767.828C570.172 768.211 570.631 768.768 570.898 769.498C571.166 770.229 571.176 770.95 570.929 771.662C570.681 772.374 570.259 772.839 569.661 773.058Z" fill="#10328C"/>
<path d="M165.129 238.724C165.129 235.224 166.337 232.265 168.754 229.849C171.171 227.432 174.129 226.224 177.629 226.224V228.724C174.824 228.724 172.456 229.689 170.525 231.62C168.594 233.55 167.629 235.918 167.629 238.724H165.129ZM170.129 238.724C170.129 236.64 170.858 234.87 172.317 233.411C173.775 231.953 175.546 231.224 177.629 231.224V233.724C176.24 233.724 175.06 234.21 174.087 235.182C173.115 236.154 172.629 237.335 172.629 238.724H170.129ZM156.796 225.807C155.935 225.807 155.199 225.501 154.587 224.89C153.976 224.279 153.671 223.543 153.671 222.682C153.671 221.821 153.976 221.085 154.587 220.474C155.199 219.863 155.935 219.557 156.796 219.557C157.657 219.557 158.393 219.863 159.004 220.474C159.615 221.085 159.921 221.821 159.921 222.682C159.921 223.543 159.615 224.279 159.004 224.89C158.393 225.501 157.657 225.807 156.796 225.807ZM152.212 233.932V230.182C152.212 229.599 152.421 229.106 152.837 228.703C153.254 228.3 153.74 228.099 154.296 228.099H159.296C160.629 228.099 161.768 227.71 162.712 226.932C163.657 226.154 164.268 225.154 164.546 223.932H167.087C166.865 225.432 166.233 226.751 165.192 227.89C164.15 229.029 162.879 229.835 161.379 230.307V233.932H152.212ZM180.962 244.765C180.101 244.765 179.365 244.46 178.754 243.849C178.143 243.238 177.837 242.501 177.837 241.64C177.837 240.779 178.143 240.043 178.754 239.432C179.365 238.821 180.101 238.515 180.962 238.515C181.824 238.515 182.56 238.821 183.171 239.432C183.782 240.043 184.087 240.779 184.087 241.64C184.087 242.501 183.782 243.238 183.171 243.849C182.56 244.46 181.824 244.765 180.962 244.765ZM176.379 252.89V249.265C174.879 248.793 173.608 247.988 172.567 246.849C171.525 245.71 170.893 244.39 170.671 242.89H173.212C173.49 244.113 174.101 245.113 175.046 245.89C175.99 246.668 177.129 247.057 178.462 247.057H183.462C184.046 247.057 184.539 247.258 184.942 247.661C185.344 248.064 185.546 248.557 185.546 249.14V252.89H176.379Z" fill="#10328C"/>
<path d="M700.316 448.22L687.394 435.297C686.827 434.738 686.064 434.425 685.269 434.425C684.473 434.425 683.71 434.738 683.143 435.297L678.422 440.018L667.493 444.119C667.001 444.304 666.567 444.615 666.233 445.022C665.9 445.428 665.679 445.915 665.594 446.433L661.211 472.676C661.172 472.892 661.182 473.114 661.239 473.326C661.296 473.537 661.399 473.734 661.541 473.901C661.683 474.069 661.86 474.202 662.06 474.293C662.26 474.384 662.478 474.429 662.697 474.425H662.942L689.181 470.061C689.7 469.968 690.185 469.743 690.591 469.407C690.996 469.07 691.308 468.635 691.495 468.142L695.595 457.212L700.316 452.472C700.875 451.905 701.188 451.142 701.188 450.346C701.188 449.551 700.875 448.787 700.316 448.22ZM688.673 467.07L667.08 470.663L675.995 461.746C676.761 462.17 677.622 462.391 678.497 462.386C679.539 462.386 680.557 462.077 681.423 461.498C682.289 460.919 682.964 460.097 683.363 459.134C683.762 458.172 683.866 457.113 683.663 456.091C683.459 455.069 682.958 454.13 682.221 453.394C681.485 452.657 680.546 452.156 679.525 451.952C678.503 451.749 677.444 451.853 676.482 452.252C675.519 452.651 674.697 453.326 674.118 454.192C673.539 455.058 673.23 456.077 673.23 457.118C673.225 457.993 673.446 458.855 673.87 459.62L664.954 468.537L668.547 446.941L678.873 443.066L692.548 456.742L688.673 467.07ZM676.24 457.118C676.24 456.672 676.372 456.235 676.62 455.864C676.868 455.493 677.221 455.204 677.633 455.033C678.046 454.862 678.5 454.817 678.937 454.904C679.375 454.991 679.777 455.206 680.093 455.522C680.409 455.838 680.624 456.24 680.711 456.678C680.798 457.116 680.753 457.57 680.582 457.982C680.412 458.395 680.122 458.747 679.751 458.995C679.38 459.243 678.944 459.376 678.497 459.376C677.898 459.376 677.324 459.138 676.901 458.715C676.478 458.291 676.24 457.717 676.24 457.118ZM694.297 454.24L681.375 441.317L685.269 437.422L698.191 450.346L694.297 454.24Z" fill="#10328C"/>
</svg>
