<svg width="57" height="48" viewBox="0 0 57 48" fill="none" xmlns="http://www.w3.org/2000/svg">
<path d="M48.101 38.1595L44.2079 35.8587L51.0771 15.7677L32.8515 4.87435L34.3357 0.602654L56.5825 13.7498L48.101 38.1595ZM22.4941 47.5449L0.247292 34.3978L8.72878 9.98811L12.622 12.2889L5.75278 32.3799L23.9784 43.2732L22.4941 47.5449ZM19.1759 30.5665C18.5784 30.7855 17.9552 30.7033 17.3063 30.3198C16.6575 29.9363 16.1992 29.3795 15.9315 28.6492C15.6639 27.9189 15.6537 27.1978 15.9011 26.4859C16.1485 25.7739 16.5709 25.3085 17.1684 25.0895C17.7659 24.8705 18.3891 24.9527 19.038 25.3362C19.6868 25.7196 20.1451 26.2765 20.4128 27.0068C20.6804 27.737 20.6906 28.4581 20.4432 29.1701C20.1958 29.882 19.7734 30.3475 19.1759 30.5665ZM29.4186 26.8123C28.8211 27.0313 28.198 26.9491 27.5491 26.5656C26.9002 26.1822 26.442 25.6253 26.1743 24.895C25.9067 24.1648 25.8965 23.4436 26.1439 22.7317C26.3913 22.0197 26.8137 21.5543 27.4112 21.3353C28.0087 21.1163 28.6319 21.1985 29.2807 21.582C29.9296 21.9654 30.3879 22.5223 30.6555 23.2526C30.9232 23.9828 30.9333 24.704 30.6859 25.4159C30.4386 26.1279 30.0161 26.5933 29.4186 26.8123ZM39.6614 23.0581C39.0639 23.2771 38.4407 23.1949 37.7919 22.8114C37.143 22.428 36.6847 21.8711 36.4171 21.1408C36.1494 20.4106 36.1393 19.6895 36.3867 18.9775C36.634 18.2656 37.0565 17.8001 37.654 17.5811C38.2515 17.3621 38.8746 17.4443 39.5235 17.8278C40.1724 18.2113 40.6306 18.7681 40.8983 19.4984C41.166 20.2287 41.1761 20.9498 40.9287 21.6617C40.6813 22.3737 40.2589 22.8391 39.6614 23.0581Z" fill="#10328C"/>
</svg>
