<svg width="41" height="41" viewBox="0 0 41 41" fill="none" xmlns="http://www.w3.org/2000/svg">
<path d="M10.0942 40.4412C8.78862 40.4412 7.67057 39.9557 6.74001 38.9846C5.80946 38.0136 5.34418 36.847 5.34418 35.4846C5.34418 34.0933 5.80946 32.9194 6.74001 31.9629C7.67057 31.0064 8.78862 30.5281 10.0942 30.5281C10.4831 30.5281 10.8233 30.5643 11.115 30.6368C11.4067 30.7093 11.7053 30.818 12.0108 30.9629L15.5525 26.3542C15.0247 25.6875 14.622 24.9267 14.3442 24.0716C14.0664 23.2165 13.997 22.3252 14.1358 21.3977L9.09418 19.6151C8.67751 20.3397 8.1289 20.9049 7.44834 21.3107C6.76779 21.7165 5.98307 21.9194 5.09418 21.9194C3.78862 21.9194 2.67057 21.4339 1.74001 20.4629C0.809455 19.4919 0.344177 18.3252 0.344177 16.9629C0.344177 15.5716 0.809455 14.3977 1.74001 13.4412C2.67057 12.4846 3.78862 12.0064 5.09418 12.0064C6.42751 12.0064 7.55251 12.4846 8.46918 13.4412C9.38584 14.3977 9.84418 15.5716 9.84418 16.9629V17.1368L14.9275 18.9629C15.4275 18.0354 16.0317 17.3252 16.74 16.8325C17.4483 16.3397 18.2331 15.9919 19.0942 15.789V10.1803C18.0108 9.86145 17.1567 9.23826 16.5317 8.31073C15.9067 7.38319 15.5942 6.41218 15.5942 5.39768C15.5942 4.00638 16.0595 2.83247 16.99 1.87594C17.9206 0.919423 19.0386 0.441162 20.3442 0.441162C21.6775 0.441162 22.8025 0.919423 23.7192 1.87594C24.6358 2.83247 25.0942 4.00638 25.0942 5.39768C25.0942 6.41218 24.7747 7.38319 24.1358 8.31073C23.497 9.23826 22.6497 9.86145 21.5942 10.1803V15.789C22.4553 15.9919 23.247 16.3397 23.9692 16.8325C24.6914 17.3252 25.3025 18.0354 25.8025 18.9629L30.8442 17.1368V16.9629C30.8442 15.5716 31.3095 14.3977 32.24 13.4412C33.1706 12.4846 34.2886 12.0064 35.5942 12.0064C36.9275 12.0064 38.0525 12.4846 38.9692 13.4412C39.8858 14.3977 40.3442 15.5716 40.3442 16.9629C40.3442 18.3252 39.8858 19.4919 38.9692 20.4629C38.0525 21.4339 36.9275 21.9194 35.5942 21.9194C34.7053 21.9194 33.9136 21.7165 33.2192 21.3107C32.5247 20.9049 31.9831 20.3397 31.5942 19.6151L26.5525 21.3977C26.6914 22.3252 26.6289 23.2165 26.365 24.0716C26.1011 24.9267 25.6914 25.6875 25.1358 26.3542L28.6775 30.9629C28.9831 30.818 29.2817 30.7093 29.5733 30.6368C29.865 30.5643 30.2053 30.5281 30.5942 30.5281C31.9275 30.5281 33.0525 31.0064 33.9692 31.9629C34.8858 32.9194 35.3442 34.0933 35.3442 35.4846C35.3442 36.847 34.8858 38.0136 33.9692 38.9846C33.0525 39.9557 31.9275 40.4412 30.5942 40.4412C29.2886 40.4412 28.1706 39.9557 27.24 38.9846C26.3095 38.0136 25.8442 36.847 25.8442 35.4846C25.8442 34.9049 25.9206 34.3832 26.0733 33.9194C26.2261 33.4557 26.4414 33.0064 26.7192 32.5716L23.1775 27.9629C22.2886 28.4557 21.3372 28.702 20.3233 28.702C19.3095 28.702 18.3581 28.4557 17.4692 27.9629L13.9692 32.6151C14.247 33.0499 14.4622 33.4919 14.615 33.9412C14.7678 34.3904 14.8442 34.9049 14.8442 35.4846C14.8442 36.847 14.3858 38.0136 13.4692 38.9846C12.5525 39.9557 11.4275 40.4412 10.0942 40.4412ZM5.09418 19.3107C5.73307 19.3107 6.26779 19.0861 6.69834 18.6368C7.1289 18.1875 7.34418 17.6296 7.34418 16.9629C7.34418 16.2962 7.1289 15.7383 6.69834 15.289C6.26779 14.8397 5.73307 14.6151 5.09418 14.6151C4.45529 14.6151 3.92057 14.8397 3.49001 15.289C3.05946 15.7383 2.84418 16.2962 2.84418 16.9629C2.84418 17.6296 3.05946 18.1875 3.49001 18.6368C3.92057 19.0861 4.45529 19.3107 5.09418 19.3107V19.3107ZM10.0942 37.8325C10.7331 37.8325 11.2678 37.6078 11.6983 37.1586C12.1289 36.7093 12.3442 36.1513 12.3442 35.4846C12.3442 34.818 12.1289 34.26 11.6983 33.8107C11.2678 33.3615 10.7331 33.1368 10.0942 33.1368C9.45529 33.1368 8.92057 33.3615 8.49001 33.8107C8.05945 34.26 7.84418 34.818 7.84418 35.4846C7.84418 36.1513 8.05945 36.7093 8.49001 37.1586C8.92057 37.6078 9.45529 37.8325 10.0942 37.8325ZM20.3442 7.74551C20.9831 7.74551 21.5178 7.52087 21.9483 7.0716C22.3789 6.62232 22.5942 6.06435 22.5942 5.39768C22.5942 4.73102 22.3789 4.17305 21.9483 3.72377C21.5178 3.2745 20.9831 3.04986 20.3442 3.04986C19.7053 3.04986 19.1706 3.2745 18.74 3.72377C18.3095 4.17305 18.0942 4.73102 18.0942 5.39768C18.0942 6.06435 18.3095 6.62232 18.74 7.0716C19.1706 7.52087 19.7053 7.74551 20.3442 7.74551ZM20.3858 26.0933C21.4136 26.0933 22.2886 25.7093 23.0108 24.9412C23.7331 24.173 24.0942 23.2383 24.0942 22.1368C24.0942 21.0644 23.7331 20.1513 23.0108 19.3977C22.2886 18.6441 21.3997 18.2672 20.3442 18.2672C19.3164 18.2672 18.4345 18.6441 17.6983 19.3977C16.9622 20.1513 16.5942 21.0788 16.5942 22.1803C16.5942 23.2528 16.9622 24.173 17.6983 24.9412C18.4345 25.7093 19.3303 26.0933 20.3858 26.0933ZM30.5942 37.8325C31.2331 37.8325 31.7678 37.6078 32.1983 37.1586C32.6289 36.7093 32.8442 36.1513 32.8442 35.4846C32.8442 34.818 32.6289 34.26 32.1983 33.8107C31.7678 33.3615 31.2331 33.1368 30.5942 33.1368C29.9553 33.1368 29.4206 33.3615 28.99 33.8107C28.5595 34.26 28.3442 34.818 28.3442 35.4846C28.3442 36.1513 28.5595 36.7093 28.99 37.1586C29.4206 37.6078 29.9553 37.8325 30.5942 37.8325ZM35.5942 19.3107C36.2331 19.3107 36.7678 19.0861 37.1983 18.6368C37.6289 18.1875 37.8442 17.6296 37.8442 16.9629C37.8442 16.2962 37.6289 15.7383 37.1983 15.289C36.7678 14.8397 36.2331 14.6151 35.5942 14.6151C34.9553 14.6151 34.4206 14.8397 33.99 15.289C33.5595 15.7383 33.3442 16.2962 33.3442 16.9629C33.3442 17.6296 33.5595 18.1875 33.99 18.6368C34.4206 19.0861 34.9553 19.3107 35.5942 19.3107Z" fill="#10328C"/>
</svg>
