<svg width="41" height="41" viewBox="0 0 41 41" fill="none" xmlns="http://www.w3.org/2000/svg">
<path d="M39.3163 14.2204L26.3941 1.29674C25.8275 0.738397 25.064 0.425415 24.2686 0.425415C23.4732 0.425415 22.7097 0.738397 22.1431 1.29674L17.4219 6.01849L6.49347 10.1195C6.00145 10.3042 5.56679 10.6153 5.23328 11.0215C4.89976 11.4278 4.67916 11.9147 4.5937 12.4333L0.211053 38.6757C0.172137 38.8917 0.181536 39.1136 0.238576 39.3256C0.295615 39.5375 0.398879 39.7342 0.540948 39.9014C0.683018 40.0687 0.860366 40.2024 1.06025 40.293C1.26014 40.3835 1.4776 40.4287 1.69701 40.4252H1.94154L28.181 36.0609C28.6996 35.9683 29.1853 35.7429 29.5908 35.4066C29.9963 35.0703 30.3077 34.6346 30.4946 34.1421L34.5951 23.2125L39.3163 18.4719C39.8746 17.9052 40.1875 17.1417 40.1875 16.3462C40.1875 15.5506 39.8746 14.7871 39.3163 14.2204V14.2204ZM27.6731 33.0698L6.07966 36.6629L14.9954 27.7461C15.7606 28.1705 16.6221 28.3908 17.4971 28.3857C18.5388 28.3857 19.557 28.0768 20.4231 27.498C21.2892 26.9192 21.9643 26.0966 22.3629 25.1341C22.7615 24.1716 22.8658 23.1126 22.6626 22.0908C22.4594 21.069 21.9578 20.1305 21.2212 19.3939C20.4847 18.6572 19.5462 18.1555 18.5246 17.9523C17.5029 17.7491 16.444 17.8534 15.4816 18.252C14.5193 18.6507 13.6967 19.3258 13.118 20.192C12.5393 21.0582 12.2304 22.0766 12.2304 23.1184C12.2253 23.9935 12.4456 24.8551 12.8699 25.6204L3.95417 34.5371L7.54681 12.9412L17.8733 9.066L31.5479 22.7422L27.6731 33.0698ZM15.2399 23.1184C15.2399 22.6719 15.3723 22.2355 15.6203 21.8642C15.8684 21.493 16.2209 21.2037 16.6333 21.0328C17.0458 20.862 17.4996 20.8173 17.9375 20.9044C18.3753 20.9915 18.7775 21.2065 19.0932 21.5222C19.4088 21.8379 19.6238 22.2401 19.7109 22.678C19.798 23.1159 19.7533 23.5698 19.5824 23.9823C19.4116 24.3948 19.1223 24.7473 18.7511 24.9954C18.3799 25.2434 17.9435 25.3758 17.4971 25.3758C16.8985 25.3758 16.3244 25.138 15.9011 24.7146C15.4778 24.2913 15.2399 23.7171 15.2399 23.1184ZM33.2972 20.2402L20.375 7.3165L24.2686 3.42247L37.1908 16.3462L33.2972 20.2402Z" fill="#10328C"/>
</svg>
