<svg width="34" height="34" viewBox="0 0 34 34" fill="none" xmlns="http://www.w3.org/2000/svg">
<path d="M13.1291 19.7237C13.1291 16.2237 14.3375 13.2653 16.7541 10.8487C19.1708 8.43201 22.1291 7.22367 25.6291 7.22367V9.72367C22.8236 9.72367 20.4555 10.689 18.525 12.6195C16.5944 14.5501 15.6291 16.9181 15.6291 19.7237H13.1291ZM18.1291 19.7237C18.1291 17.6403 18.8583 15.8695 20.3166 14.4112C21.775 12.9528 23.5458 12.2237 25.6291 12.2237V14.7237C24.2402 14.7237 23.0597 15.2098 22.0875 16.182C21.1152 17.1542 20.6291 18.3348 20.6291 19.7237H18.1291ZM4.7958 6.80701C3.93469 6.80701 3.19857 6.50145 2.58746 5.89034C1.97635 5.27923 1.6708 4.54312 1.6708 3.68201C1.6708 2.8209 1.97635 2.08478 2.58746 1.47367C3.19857 0.862562 3.93469 0.557007 4.7958 0.557007C5.65691 0.557007 6.39302 0.862562 7.00413 1.47367C7.61524 2.08478 7.9208 2.8209 7.9208 3.68201C7.9208 4.54312 7.61524 5.27923 7.00413 5.89034C6.39302 6.50145 5.65691 6.80701 4.7958 6.80701ZM0.212463 14.932V11.182C0.212463 10.5987 0.420797 10.1056 0.837463 9.70284C1.25413 9.30006 1.74024 9.09867 2.2958 9.09867H7.2958C8.62913 9.09867 9.76802 8.70978 10.7125 7.93201C11.6569 7.15423 12.268 6.15423 12.5458 4.93201H15.0875C14.8652 6.43201 14.2333 7.75145 13.1916 8.89034C12.15 10.0292 10.8791 10.8348 9.37913 11.307V14.932H0.212463ZM28.9625 25.7653C28.1014 25.7653 27.3652 25.4598 26.7541 24.8487C26.143 24.2376 25.8375 23.5015 25.8375 22.6403C25.8375 21.7792 26.143 21.0431 26.7541 20.432C27.3652 19.8209 28.1014 19.5153 28.9625 19.5153C29.8236 19.5153 30.5597 19.8209 31.1708 20.432C31.7819 21.0431 32.0875 21.7792 32.0875 22.6403C32.0875 23.5015 31.7819 24.2376 31.1708 24.8487C30.5597 25.4598 29.8236 25.7653 28.9625 25.7653ZM24.3791 33.8903V30.2653C22.8791 29.7931 21.6083 28.9876 20.5666 27.8487C19.525 26.7098 18.893 25.3903 18.6708 23.8903H21.2125C21.4902 25.1126 22.1014 26.1126 23.0458 26.8903C23.9902 27.6681 25.1291 28.057 26.4625 28.057H31.4625C32.0458 28.057 32.5389 28.2584 32.9416 28.6612C33.3444 29.0639 33.5458 29.557 33.5458 30.1403V33.8903H24.3791Z" fill="#10328C"/>
</svg>
