<svg width="430" height="488" viewBox="0 0 430 488" fill="none" xmlns="http://www.w3.org/2000/svg">
<circle cx="215" cy="237.668" r="214.121" fill="#10328C"/>
<circle cx="215" cy="237.668" r="177.283" fill="white"/>
<path d="M262.439 361.331L216.727 480.496L171.014 361.331L262.439 361.331Z" fill="#10328C" stroke="white" stroke-width="5"/>
<path d="M355.445 237.668C355.445 315.234 292.566 378.113 215 378.113C137.434 378.113 74.5552 315.234 74.5552 237.668C74.5552 160.103 137.434 97.2236 215 97.2236C292.566 97.2236 355.445 160.103 355.445 237.668Z" fill="#10328C"/>
<circle cx="215" cy="237.668" r="92.095" fill="white"/>
<mask id="path-6-inside-1_927_37" fill="white">
<path d="M193.127 0.523926H236.873V201.982H193.127V0.523926Z"/>
</mask>
<path d="M193.127 0.523926H236.873V201.982H193.127V0.523926Z" fill="#10328C"/>
<path d="M193.127 0.523926V-4.47607H188.127V0.523926H193.127ZM236.873 0.523926H241.873V-4.47607H236.873V0.523926ZM193.127 5.52393H236.873V-4.47607H193.127V5.52393ZM231.873 0.523926V201.982H241.873V0.523926H231.873ZM198.127 201.982V0.523926H188.127V201.982H198.127Z" fill="white" mask="url(#path-6-inside-1_927_37)"/>
<circle cx="215" cy="237.668" r="55.257" fill="#10328C"/>
</svg>
