<svg width="94" height="44" viewBox="0 0 94 44" fill="none" xmlns="http://www.w3.org/2000/svg">
<g filter="url(#filter0_d_940_2)">
<g filter="url(#filter1_d_940_2)">
<circle cx="19.3901" cy="17.6933" r="15.3901" fill="#10328C"/>
<circle cx="19.39" cy="17.693" r="12.7423" fill="white"/>
<path d="M22.7998 26.5814L19.5141 35.1465L16.2285 26.5814L22.7998 26.5814Z" fill="#10328C" stroke="white" stroke-width="0.359378"/>
<circle cx="19.3899" cy="17.6932" r="10.0946" fill="#10328C"/>
<circle cx="19.3903" cy="17.6934" r="6.61938" fill="white"/>
<mask id="path-6-inside-1_940_2" fill="white">
<path d="M17.8178 0.648438H20.962V15.1283H17.8178V0.648438Z"/>
</mask>
<path d="M17.8178 0.648438H20.962V15.1283H17.8178V0.648438Z" fill="#10328C"/>
<path d="M17.8178 0.648438V0.289059H17.4584V0.648438H17.8178ZM20.962 0.648438H21.3214V0.289059H20.962V0.648438ZM17.8178 1.00782H20.962V0.289059H17.8178V1.00782ZM20.6026 0.648438V15.1283H21.3214V0.648438H20.6026ZM18.1772 15.1283V0.648438H17.4584V15.1283H18.1772Z" fill="white" mask="url(#path-6-inside-1_940_2)"/>
<circle cx="19.3901" cy="17.6933" r="3.97163" fill="#10328C"/>
</g>
<line x1="37.744" y1="6.73634" x2="37.4746" y2="29.5732" stroke="white" stroke-width="1.07772"/>
<path d="M44.4556 8.0458C44.4179 8.00808 44.3479 7.95689 44.2455 7.89223C44.1485 7.82756 44.0272 7.76559 43.8817 7.70632C43.7416 7.64704 43.5881 7.59585 43.421 7.55274C43.254 7.50425 43.0842 7.48 42.9118 7.48C42.61 7.48 42.381 7.53658 42.2247 7.64974C42.0739 7.7629 41.9984 7.92186 41.9984 8.12663C41.9984 8.2829 42.0469 8.40684 42.1439 8.49844C42.2409 8.59005 42.3864 8.66819 42.5804 8.73285C42.7744 8.79751 43.0169 8.86756 43.3079 8.943C43.6851 9.03461 44.0111 9.14777 44.2859 9.28249C44.5661 9.41181 44.7789 9.58425 44.9244 9.79979C45.0753 10.0099 45.1508 10.2902 45.1508 10.6404C45.1508 10.9476 45.0942 11.2116 44.981 11.4325C44.8679 11.6481 44.7116 11.8232 44.5122 11.9579C44.3128 12.0926 44.0865 12.1923 43.8332 12.257C43.58 12.3163 43.3105 12.3459 43.0249 12.3459C42.7394 12.3459 42.4538 12.3163 42.1682 12.257C41.8826 12.1977 41.6077 12.1142 41.3437 12.0064C41.0797 11.8933 40.8372 11.7586 40.6162 11.6023L41.1093 10.6404C41.1578 10.6889 41.244 10.7536 41.368 10.8344C41.4919 10.9098 41.6428 10.988 41.8206 11.0688C41.9984 11.1443 42.1924 11.2089 42.4026 11.2628C42.6127 11.3167 42.8256 11.3436 43.0411 11.3436C43.3429 11.3436 43.5719 11.2924 43.7282 11.1901C43.8844 11.0877 43.9626 10.9422 43.9626 10.7536C43.9626 10.5811 43.9006 10.4464 43.7767 10.3494C43.6527 10.2524 43.4803 10.1689 43.2594 10.0989C43.0384 10.0234 42.7771 9.94259 42.4753 9.85637C42.1143 9.75399 41.8125 9.64083 41.57 9.51689C41.3275 9.38757 41.147 9.22591 41.0285 9.03192C40.9099 8.83793 40.8506 8.59544 40.8506 8.30445C40.8506 7.91109 40.9423 7.58238 41.1255 7.31834C41.3141 7.04891 41.5673 6.84683 41.8853 6.71212C42.2032 6.57202 42.5561 6.50196 42.9441 6.50196C43.2136 6.50196 43.4668 6.5316 43.7039 6.59088C43.9464 6.65015 44.1727 6.72829 44.3829 6.82528C44.593 6.92228 44.7816 7.02735 44.9487 7.14051L44.4556 8.0458ZM50.2857 7.52041H48.4509V12.2812H47.3435V7.52041H45.5087V6.54238H50.2857V7.52041ZM52.0214 6.54238H53.153L55.2626 12.2812H54.1148L53.5814 10.8506H51.5768L51.0514 12.2812H49.9036L52.0214 6.54238ZM53.3793 10.0665L52.5872 7.69824L51.7627 10.0665H53.3793ZM55.8921 12.2812V6.54238H58.4301C58.6942 6.54238 58.9366 6.59626 59.1576 6.70404C59.3839 6.81181 59.5779 6.9573 59.7395 7.14051C59.9066 7.32373 60.0332 7.52849 60.1194 7.75482C60.211 7.98114 60.2568 8.21285 60.2568 8.44995C60.2568 8.69243 60.2137 8.92684 60.1275 9.15316C60.0467 9.37409 59.9281 9.56808 59.7719 9.73513C59.6156 9.90218 59.4324 10.0315 59.2222 10.1231L60.5317 12.2812H59.3031L58.123 10.3575H57.0075V12.2812H55.8921ZM57.0075 9.37948H58.4059C58.546 9.37948 58.6699 9.33907 58.7777 9.25824C58.8854 9.17202 58.9717 9.05886 59.0363 8.91876C59.101 8.77865 59.1333 8.62238 59.1333 8.44995C59.1333 8.26673 59.0956 8.10777 59.0202 7.97305C58.9447 7.83295 58.8477 7.72248 58.7292 7.64165C58.616 7.56083 58.4921 7.52041 58.3574 7.52041H57.0075V9.37948ZM65.4964 7.52041H63.6616V12.2812H62.5542V7.52041H60.7194V6.54238H65.4964V7.52041Z" fill="white"/>
<path d="M41.0367 20.3206V14.5817H42.1522V20.3206H41.0367ZM44.465 16.6347V20.3206H43.3495V14.5817H44.2386L47.2051 18.3645V14.5898H48.3205V20.3206H47.391L44.465 16.6347ZM50.6298 16.6347V20.3206H49.5143V14.5817H50.4034L53.3699 18.3645V14.5898H54.4853V20.3206H53.5558L50.6298 16.6347ZM58.1283 20.361C57.7079 20.361 57.3254 20.2801 56.9805 20.1185C56.641 19.9568 56.3473 19.7386 56.0994 19.4638C55.857 19.1836 55.6684 18.871 55.5336 18.5261C55.3989 18.1759 55.3316 17.8175 55.3316 17.4511C55.3316 17.0685 55.4016 16.7048 55.5417 16.3599C55.6872 16.0097 55.8839 15.6998 56.1318 15.4304C56.385 15.1556 56.6814 14.94 57.0209 14.7838C57.3658 14.6221 57.743 14.5413 58.1525 14.5413C58.5674 14.5413 58.9446 14.6248 59.2841 14.7918C59.629 14.9589 59.9227 15.1825 60.1652 15.4627C60.4076 15.7429 60.5962 16.0555 60.731 16.4003C60.8657 16.7452 60.933 17.1009 60.933 17.4673C60.933 17.8445 60.863 18.2082 60.7229 18.5585C60.5828 18.9034 60.3861 19.2132 60.1328 19.488C59.8849 19.7574 59.5886 19.9703 59.2437 20.1266C58.9042 20.2828 58.5324 20.361 58.1283 20.361ZM56.4632 17.4511C56.4632 17.699 56.5009 17.9388 56.5763 18.1705C56.6518 18.4022 56.7595 18.6097 56.8997 18.7929C57.0451 18.9707 57.2203 19.1135 57.425 19.2213C57.6352 19.3237 57.8723 19.3749 58.1363 19.3749C58.4058 19.3749 58.6456 19.321 58.8557 19.2132C59.0659 19.1 59.241 18.9518 59.3811 18.7686C59.5212 18.58 59.6263 18.3726 59.6963 18.1463C59.7718 17.9145 59.8095 17.6828 59.8095 17.4511C59.8095 17.2032 59.7691 16.9661 59.6883 16.7398C59.6128 16.5081 59.5024 16.3033 59.3569 16.1255C59.2168 15.9423 59.0416 15.7995 58.8315 15.6971C58.6267 15.5894 58.395 15.5355 58.1363 15.5355C57.8615 15.5355 57.619 15.592 57.4089 15.7052C57.2041 15.813 57.0317 15.9585 56.8916 16.1417C56.7515 16.3249 56.6437 16.5297 56.5683 16.756C56.4982 16.9823 56.4632 17.214 56.4632 17.4511ZM62.1577 14.5817L63.7096 18.995L65.2454 14.5817H66.4174L64.2431 20.3206H63.1681L60.9857 14.5817H62.1577ZM68.1242 14.5817H69.2558L71.3655 20.3206H70.2177L69.6842 18.8899H67.6797L67.1543 20.3206H66.0065L68.1242 14.5817ZM69.4822 18.1058L68.69 15.7375L67.8656 18.1058H69.4822ZM75.7502 15.5597H73.9154V20.3206H72.808V15.5597H70.9732V14.5817H75.7502V15.5597ZM76.4626 20.3206V14.5817H77.5781V20.3206H76.4626ZM81.2246 20.361C80.8043 20.361 80.4217 20.2801 80.0768 20.1185C79.7373 19.9568 79.4436 19.7386 79.1958 19.4638C78.9533 19.1836 78.7647 18.871 78.6299 18.5261C78.4952 18.1759 78.4279 17.8175 78.4279 17.4511C78.4279 17.0685 78.4979 16.7048 78.638 16.3599C78.7835 16.0097 78.9802 15.6998 79.2281 15.4304C79.4813 15.1556 79.7777 14.94 80.1172 14.7838C80.4621 14.6221 80.8393 14.5413 81.2488 14.5413C81.6637 14.5413 82.0409 14.6248 82.3804 14.7918C82.7253 14.9589 83.019 15.1825 83.2615 15.4627C83.5039 15.7429 83.6925 16.0555 83.8273 16.4003C83.962 16.7452 84.0293 17.1009 84.0293 17.4673C84.0293 17.8445 83.9593 18.2082 83.8192 18.5585C83.6791 18.9034 83.4824 19.2132 83.2291 19.488C82.9813 19.7574 82.6849 19.9703 82.34 20.1266C82.0005 20.2828 81.6287 20.361 81.2246 20.361ZM79.5595 17.4511C79.5595 17.699 79.5972 17.9388 79.6726 18.1705C79.7481 18.4022 79.8559 18.6097 79.996 18.7929C80.1415 18.9707 80.3166 19.1135 80.5213 19.2213C80.7315 19.3237 80.9686 19.3749 81.2326 19.3749C81.5021 19.3749 81.7419 19.321 81.952 19.2132C82.1622 19.1 82.3373 18.9518 82.4774 18.7686C82.6175 18.58 82.7226 18.3726 82.7926 18.1463C82.8681 17.9145 82.9058 17.6828 82.9058 17.4511C82.9058 17.2032 82.8654 16.9661 82.7846 16.7398C82.7091 16.5081 82.5987 16.3033 82.4532 16.1255C82.3131 15.9423 82.1379 15.7995 81.9278 15.6971C81.723 15.5894 81.4913 15.5355 81.2326 15.5355C80.9578 15.5355 80.7153 15.592 80.5052 15.7052C80.3004 15.813 80.128 15.9585 79.9879 16.1417C79.8478 16.3249 79.74 16.5297 79.6646 16.756C79.5945 16.9823 79.5595 17.214 79.5595 17.4511ZM86.0004 16.6347V20.3206H84.885V14.5817H85.7741L88.7405 18.3645V14.5898H89.856V20.3206H88.9264L86.0004 16.6347Z" fill="white"/>
<path d="M45.8622 22.621V28.3599H44.7549V25.9107H42.1522V28.3599H41.0367V22.621H42.1522V24.9408H44.7549V22.621H45.8622ZM49.4924 28.4003C49.0344 28.4003 48.6437 28.3248 48.3204 28.174C48.0025 28.0177 47.7438 27.8048 47.5444 27.5354C47.3504 27.266 47.2076 26.9615 47.116 26.622C47.0244 26.2772 46.9786 25.9188 46.9786 25.547V22.621H48.0941V25.547C48.0941 25.7841 48.1156 26.0158 48.1587 26.2421C48.2072 26.4631 48.2854 26.6625 48.3931 26.8403C48.5009 27.0181 48.6437 27.1582 48.8215 27.2606C48.9994 27.363 49.2203 27.4142 49.4843 27.4142C49.7538 27.4142 49.9774 27.363 50.1552 27.2606C50.3384 27.1528 50.4812 27.01 50.5836 26.8322C50.6914 26.6544 50.7695 26.455 50.818 26.2341C50.8665 26.0077 50.8908 25.7787 50.8908 25.547V22.621H51.9981V25.547C51.9981 25.9404 51.9496 26.3095 51.8526 26.6544C51.761 26.9992 51.6128 27.3037 51.4081 27.5677C51.2087 27.8264 50.95 28.0312 50.6321 28.182C50.3142 28.3275 49.9343 28.4003 49.4924 28.4003ZM57.7451 26.8807C57.7451 27.204 57.6615 27.4761 57.4945 27.6971C57.3275 27.9126 57.1011 28.077 56.8155 28.1901C56.5353 28.3033 56.2282 28.3599 55.8941 28.3599H53.1216V22.621H56.1932C56.4626 22.621 56.6943 22.6937 56.8883 22.8392C57.0877 22.9793 57.2385 23.1625 57.3409 23.3889C57.4487 23.6098 57.5026 23.8415 57.5026 24.084C57.5026 24.3588 57.4325 24.6202 57.2924 24.868C57.1523 25.1159 56.9476 25.2991 56.6781 25.4177C57.0068 25.5147 57.2655 25.6898 57.4541 25.9431C57.6481 26.1963 57.7451 26.5089 57.7451 26.8807ZM56.6215 26.6705C56.6215 26.525 56.5919 26.3957 56.5326 26.2826C56.4734 26.164 56.3925 26.0724 56.2901 26.0077C56.1932 25.9377 56.08 25.9027 55.9507 25.9027H54.2371V27.4142H55.8941C56.0288 27.4142 56.15 27.3818 56.2578 27.3172C56.371 27.2471 56.4599 27.1555 56.5246 27.0423C56.5892 26.9292 56.6215 26.8052 56.6215 26.6705ZM54.2371 23.5748V25.0216H55.7243C55.8483 25.0216 55.9614 24.992 56.0638 24.9327C56.1662 24.8734 56.247 24.7899 56.3063 24.6821C56.371 24.5744 56.4033 24.445 56.4033 24.2942C56.4033 24.1487 56.3737 24.022 56.3144 23.9143C56.2605 23.8065 56.1851 23.723 56.0881 23.6637C55.9965 23.6044 55.8914 23.5748 55.7728 23.5748H54.2371Z" fill="white"/>
</g>
<defs>
<filter id="filter0_d_940_2" x="0" y="0.648438" width="93.856" height="42.9998" filterUnits="userSpaceOnUse" color-interpolation-filters="sRGB">
<feFlood flood-opacity="0" result="BackgroundImageFix"/>
<feColorMatrix in="SourceAlpha" type="matrix" values="0 0 0 0 0 0 0 0 0 0 0 0 0 0 0 0 0 0 127 0" result="hardAlpha"/>
<feOffset dy="4"/>
<feGaussianBlur stdDeviation="2"/>
<feComposite in2="hardAlpha" operator="out"/>
<feColorMatrix type="matrix" values="0 0 0 0 0 0 0 0 0 0 0 0 0 0 0 0 0 0 0.25 0"/>
<feBlend mode="normal" in2="BackgroundImageFix" result="effect1_dropShadow_940_2"/>
<feBlend mode="normal" in="SourceGraphic" in2="effect1_dropShadow_940_2" result="shape"/>
</filter>
<filter id="filter1_d_940_2" x="3.46114" y="0.109576" width="36.1688" height="40.3884" filterUnits="userSpaceOnUse" color-interpolation-filters="sRGB">
<feFlood flood-opacity="0" result="BackgroundImageFix"/>
<feColorMatrix in="SourceAlpha" type="matrix" values="0 0 0 0 0 0 0 0 0 0 0 0 0 0 0 0 0 0 127 0" result="hardAlpha"/>
<feOffset dx="2.15544" dy="2.15544"/>
<feGaussianBlur stdDeviation="1.34715"/>
<feComposite in2="hardAlpha" operator="out"/>
<feColorMatrix type="matrix" values="0 0 0 0 0 0 0 0 0 0 0 0 0 0 0 0 0 0 0.1 0"/>
<feBlend mode="normal" in2="BackgroundImageFix" result="effect1_dropShadow_940_2"/>
<feBlend mode="normal" in="SourceGraphic" in2="effect1_dropShadow_940_2" result="shape"/>
</filter>
</defs>
</svg>
